<?xml version="1.0" encoding="UTF-8"?>
<svg xmlns="http://www.w3.org/2000/svg" xmlns:xlink="http://www.w3.org/1999/xlink" viewBox="0 0 2388 1668">

  <g id="Vector_layer" data-name="Vector layer">
    <g>
      <path d="M1050.72,620.15c-29.83-.57-55.35-7.04-77.95-27.49-11.77-10.1-20.12-24.7-21.94-40.17-1.21-12.79.11-25.89,3.98-38.14,9.37-27.17,37.27-55.72,62.26-69.43,20.27-10.93,43.98-12.67,66.56-10.74,3.12.24,6.13,1.24,8.73,2.93,2.44,1.87,4.83,3.78,7.48,5.37.64.36,1.23.88,1.32,1.65-.03.21.04.37.22.48,1.93,1.74,3.9,3.43,5.95,5.04,3.5,2.95,7.29,5.53,10.6,8.69,3.71,3.54,6.33,7.96,8.7,12.46,4.38,7.72,7.43,16.05,10.7,24.27,6.72,15.88,8.42,19.55,5.72,37.07-2.01,15.76-6.49,31.29-14.57,45.05-7.48,14.25-20.14,24.75-33.68,33.02-13,8.51-28.77,11-44.06,9.94ZM1066.52,437.69c-16.02,0-32.23,2.93-46.52,10.38-21.36,11.47-40.67,30.93-53.56,51.36-6.93,11.06-10.62,23.83-11.53,36.8-.82,10.91-.15,22.23,4.9,32.14,5.47,13.03,16.34,22.59,27.8,30.37,18.36,12.85,41.13,16.66,63.11,17.13,20.22,1.33,34.46-2.94,50.61-15.18,5.12-3.76,10.07-7.81,14.35-12.52,9.07-10.77,15.51-23.83,19.28-37.36,2.09-7.06,3.23-14.37,4.16-21.66,1.24-8.26,1.57-15.62-2.05-23.38-5.68-13.52-10.23-27.68-18.37-39.99-3.58-5.13-8.93-8.51-13.67-12.45-18.76-15.21-12.81-15.81-38.51-15.65Z" fill="#000" stroke-width="0"/>
      <path d="M1481.7,1444.42c-7.94-.24-15.96-3.16-21.44-9.04-5.62-5.92-10.58-14.41-7.98-22.8.9-2.88,2.04-5.04,4.24-7.11,5.26-4.65,11.63-7.8,17.7-11.23,11.82-6.4,23.16-13.66,35.03-19.98,20.82-11.49,42.34-21.75,62.35-34.67,24.58-15.34,48.21-32.15,72.71-47.63,23.64-14.96,48.08-28.61,71.57-43.82,26.55-17.36,54.15-33.18,79.73-51.98,19-13.75,36.62-29.29,54.02-44.98,13.02-11.89,26.23-23.69,37.63-37.18,10.79-12.59,19.1-26.98,27.82-41.02,12.13-19.54,23.89-39.85,29.58-62.32,3.43-15.19,2.65-31.29-2.06-46.12-5.5-17.6-21.82-39.25-35.34-51.98-16.48-14.3-36.55-24.22-57.44-30.24-19.07-5.48-39.08-6.6-58.82-6.38-73.66-.28-131.42,20.49-195.24,55.25-51.93,26.81-101.36,58.06-149.78,90.72-59.84,40.31-120.76,78.99-180.01,120.16-56.32,39.08-111.37,79.99-169.09,117.02-37.26,23.97-75.09,47.05-112.73,70.41-39.38,24.83-79.79,48.55-123.79,64.28-52.83,18.8-108.15,33.59-164.61,33.03-20.03-.17-39.98-2.01-59.9-3.97-21.22-1.79-42.39-4.66-63.07-9.77-36.18-8.37-70.71-25.63-94.22-55.07-22.22-27.26-39.58-58.45-52.4-91.15-8.22-21.7-14.36-44.13-20.31-66.53-10.64-43.24-25.73-85.96-27.62-130.8-.89-43.23-.49-86.54,2.4-129.7,1.3-15.94,3-31.84,4.68-47.75,1.7-17.21,1.71-34.56,3.93-51.73,2.38-18.02,5.73-35.88,8.57-53.82,1.71-10.93,2.9-21.95,5.04-32.81,3.3-14.84,7.99-29.3,12.62-43.77,4.98-15.18,10.62-30.13,17.2-44.69,10.95-22.86,22.13-45.64,34.04-68.03,9.95-18.36,21.19-35.97,31.65-54.04,10.92-19.29,21.57-38.72,33.02-57.71,7.32-13.06,15.63-25.55,25.28-37.01,7.52-9.19,15.51-17.97,23.73-26.53,3.25-3.46,6.54-6.89,9.42-10.67,1.98-2.49,3.68-5.28,4.17-8.48.41-4.61-4.18-7.57-6.32-11.15-.98-1.58-1.59-2.72-1.92-4.56-.45-2.17.34-4.53,2.23-5.67.79-.47,1.75-.63,2.66-.7,3.46-.07,6.9.41,10.34.73,11.9,1.7,23.84,3.97,35.23,7.89,5.52,1.9,12.16,5.39,12.11,12.14.09,3.52.08,7.1-1.36,10.38-5.94,13.49-15.69,24.89-24.07,36.9-9.29,12.5-18.12,25.31-26.93,38.14-37.11,54.33-60.85,116.1-86.07,176.5-7.68,19.99-15.83,39.84-21.96,60.37-7.5,22.66-13.34,45.84-18.17,69.21-8.85,42.02-12.21,84.96-17.13,127.57-2.46,30.91-3.28,62.01-2.46,93,1.16,24.43,6.27,48.5,14.69,71.45,6.84,18.21,16.19,35.52,27.41,51.4,13.46,19.79,29.54,38.51,50.64,50.37,20.09,10.87,46.56,15.59,68.5,7.91,16.37-5.53,27.67-19.38,37.29-33.05,14.23-20.21,23.87-43.34,28.98-67.48,4.94-20.19,5.78-41.14,4.15-61.81-1.24-19.64-3.67-39.17-5.62-58.75-2.96-29.77-5.96-59.56-10.14-89.19-1.74-10.81-3.13-21.7-5.49-32.4-2.02-9.49-4.7-18.84-7.09-28.25-4.15-16.38-7.55-33.03-9.47-49.82-1.5-21.33-.74-42.98,3.91-63.9,4.21-21.67,12.34-42.3,21.56-62.28,11.49-25.39,21.52-51.43,33.87-76.44,12.93-28.04,36.86-48.75,53.41-74.47,9.23-14.45,18.92-28.66,30.67-41.22,17.77-18.75,37.76-35.22,57.33-52.04,16.56-13.98,33.74-27.28,51.87-39.17,22.15-14.54,44.48-28.78,67.28-42.29,30.47-17.29,62.58-31.32,94.29-46.12,16.5-7.56,33.08-14.95,50.05-21.42,14.35-5.67,28.77-11.22,43.71-15.16,11.56-2.96,23.3-5.14,35.05-7.19,10.31-1.81,20.61-3.89,31.05-4.79,32.63-3.13,65.47-3.44,98.23-3.92,43.02.21,86.17.09,128.99,4.72,16.52,1.92,32.85,5.09,49.2,8.13,11.6,2.15,23.18,4.35,34.63,7.22,22.46,5.82,44.26,13.93,66.27,21.23,11.51,4.1,24.12,6.92,33.66,14.93,2.49,3.41,3.19,8.76.22,12.09-2.6,2.63-6.58,1.66-9.85,1.37-4.13-.67-8.21-1.82-12.08-3.39-5.78-2.7-11.38-5.93-17.73-7.13-13.73-2.88-27.88-2.96-41.7-5.34-17.43-2.46-34.68-5.99-52.09-8.61-24.03-3.56-48.13-6.89-72.28-9.48-21.58-.89-43.21-.71-64.79,0-20.91.87-41.74,3.03-62.55,5.09-19.94,2.21-40.08,4.17-59.45,9.61-15.59,4.73-30.45,11.58-45.16,18.53-24.56,12.19-47.77,26.97-69.69,43.4-14.27,10.43-28.71,20.65-42.47,31.75-17.84,14.48-33.52,31.39-49.09,48.23-8.47,9.2-17,18.36-24.81,28.14-8.14,10.04-15.25,20.83-22.2,31.7-2.92,3.79-4.7,9.33-9.47,11.14-.94.23-1.93.15-2.89.13-1.13-.07-2.47.19-3.12-.95-.58-.96-.16-2.25.86-2.7,1.29-.41,2.74-.05,4.08-.27.68-.17,1.24-.9,1.65-1.36,2.59-3.18,4.54-6.84,6.84-10.24,4.56-7.1,9.11-14.23,14.14-21.01,12.52-17.17,27.37-32.44,41.74-48.05,10.65-11.6,21.96-22.57,33.64-33.13,12.02-10.04,24.68-19.3,37.32-28.53,27.54-20.59,56.03-40.2,87.31-54.73,17.77-8.15,35.83-16.18,55.2-19.65,23.24-4.41,46.87-6.36,70.4-8.62,33.69-3.32,67.63-3.94,101.45-2.71,10.39.68,20.7,2.35,31.04,3.64,14.01,1.78,28.01,3.63,41.96,5.79,20.34,3.05,40.5,7.27,60.92,9.85,17.22,2.31,35.52,1.76,50.92,10.93,4.26,1.91,8.78,3.29,13.42,3.94,1.71.14,3.49.54,5.16.04,1.77-1.26,1.22-4.2.4-5.93-.76-1.93-3.14-2.52-4.72-3.64-5.97-3.86-12.82-5.91-19.52-8.13-16.61-5.6-33.18-11.3-49.84-16.74-21.05-7.21-42.91-11.5-64.77-15.43-15.03-2.81-30.08-5.61-45.3-7.17-43.79-4.58-87.92-4.22-131.9-4.42-30.82.78-61.72.9-92.43,3.98-17.14,1.9-34.09,5.38-51,8.66-17.3,3.33-34,9.1-50.34,15.57-24.51,9.23-48.37,20.05-72.08,31.15-20.79,9.78-41.85,18.97-62.08,29.89-15.66,8.06-30.54,17.48-45.54,26.68-19.01,12.01-38.01,24.1-56.34,37.13-12.02,9.09-23.96,18.33-35.36,28.19-17.94,15.32-36.05,30.54-52.51,47.46-7.83,8.28-14.98,17.2-21.49,26.54-5.47,7.92-10.43,16.18-16.07,23.98-14.24,20.41-32.81,37.83-44.6,59.92-9.98,19.54-18.47,39.78-26.99,59.98-7.09,16.54-14.85,32.81-21.45,49.56-6.31,17.95-11.17,36.46-13.22,55.41-1.12,11.31-1.11,22.71-.91,34.06.52,14.46,3.78,28.62,6.49,42.79,3.41,15.63,8.24,30.91,11.39,46.59,6.32,34.92,10.04,70.24,13.55,105.54,2.59,27.86,6.47,55.62,7.53,83.6.97,22.06-2.43,44.07-8.59,65.22-7.36,26.02-20.77,50.34-38.65,70.6-23.14,26.9-59.7,27.11-90.65,14.31-23.59-10.45-42.02-29.81-56.64-50.65-20.45-27.38-34.58-59.08-41.69-92.48-5.21-24.47-5.53-49.66-4.95-74.58.59-18.98.88-38.01,2.68-56.91,2-19.79,4.31-39.54,6.68-59.29,2.61-22.39,5.28-44.79,10.16-66.82,4.64-22.42,9.98-44.75,17.11-66.52,7.66-25.55,17.53-50.37,27.54-75.07,16.31-39.09,32.23-78.5,51.73-116.13,6.73-12.25,13.39-24.53,20.91-36.32,8.06-12.85,16.81-25.23,25.42-37.71,9.27-12.87,18.89-25.5,27.76-38.66,3.47-5.81,8.36-11.74,8.42-18.81.13-2.31.21-5.13-1.53-6.95-1.54-1.84-3.87-2.67-6.01-3.61-2.6-1.15-5.31-2-8.05-2.71-8.36-2.3-16.86-4.1-25.44-5.31-4.27-.51-8.63-1.36-12.89-.94-.65.57-.02,2.19.18,2.7.61,1.53,1.79,2.81,2.82,4.07,2.44,3.05,5.56,6.72,5.07,10.91-1.06,9.14-9.56,16.14-15.37,22.75-5.46,5.69-10.77,11.52-15.99,17.42-9.79,11.43-19.26,23.21-26.83,36.25-11.29,19.13-22.61,38.24-33.16,57.8-11.64,20.73-24.63,40.67-35.98,61.56-8.28,15.21-15.87,30.78-23.52,46.31-6.79,13.68-13.57,27.39-18.96,41.7-8.1,21.36-15.27,43.14-20.68,65.35-2.87,12.46-3.95,25.25-6.03,37.85-2.91,17.78-6.19,35.52-8.45,53.4-1.63,13.58-1.87,27.28-2.95,40.91-1.94,23.43-5.09,46.76-6.31,70.26-1.77,37.51-2.24,75.09-1.53,112.63.96,32.35,9.22,63.81,17.75,94.85,9.62,35.64,17.74,71.83,31.08,106.33,11.77,29.45,27.51,57.41,46.83,82.57,33.51,44.71,85.78,59.45,138.89,65.92,32.6,3.29,65.36,7.15,98.17,5.43,33.16-1.41,65.77-8.49,97.64-17.46,37.95-10.73,75.06-24.74,109.76-43.59,36.61-20.1,71.54-43.1,107.18-64.84,37.98-23.53,75.86-47.28,112.72-72.53,41.43-28.52,82.06-58.16,123.41-86.79,43.54-30.31,88.21-58.97,132.36-88.39,56.82-37.59,112.86-76.65,172.89-109.04,68.56-37.82,129.66-66.61,209.86-67.57,38.88-1.68,74.68,2.53,108.79,22.9,7.25,4.3,14.19,9.14,20.5,14.73,7.97,7.22,14.63,15.77,20.86,24.51,16.32,21.32,23.44,47.92,18.38,74.5-4.86,22.43-16.11,42.87-28.04,62.26-7.27,11.69-14.17,23.65-22.2,34.84-12.56,17.59-28.6,32.21-44.48,46.72-20.14,18.29-40.71,36.16-62.9,51.94-17.15,11.96-34.96,22.93-52.63,34.09-24.79,15.89-49.69,31.59-75.15,46.38-25.9,15.64-50.73,32.93-76.05,49.47-10.55,6.85-21.21,13.54-32.04,19.93-12.03,6.59-24.24,12.82-36.28,19.39-11.6,6.04-22.85,12.69-34.13,19.3-8.04,4.71-16.54,8.68-24.11,14.13-13,8.86-.79,27.13,10.5,31.23,3.08,1.19,6.39,1.78,9.68,1.92,3.09.27,6.7-.47,8.31-3.38.77-1.56,1.57-3.17,1.3-4.95-.35-2.18-2.23-3.75-4.02-4.8-1.07-.63-2.25-1.13-3.16-1.98-.86-.93-.89-2.54-.21-3.57,1.87-2.1,4.7-3.06,7.12-4.4,7.11-3.56,14.27-7.02,21.41-10.52,19.27-9.52,38.59-18.94,58.25-27.64,27.12-12.08,53.22-26.27,79.58-39.89,20.03-10.08,39.65-20.93,58.82-32.55,19.78-11.43,39.51-22.97,58.68-35.41,19.65-12.41,38.13-26.52,57.09-39.95,12.23-8.8,25-16.83,37.21-25.65,13.71-9.99,26.98-20.57,40.77-30.45,14.14-10.1,28.55-19.85,42.1-30.75,17.85-13.97,34.61-29.31,49.82-46.13,8.35-8.99,16.51-18.23,23.2-28.55,10.03-15.2,16.05-32.54,21.97-49.64,4.08-11.73,7.81-23.61,10.68-35.7,2.63-11.74,4.54-23.63,6.32-35.52,5.43-36.01,11.08-72.7,6.86-109.14-1.69-13.71-5.84-26.92-10.44-39.89-4.28-12.54-9.57-24.74-15.58-36.55-3.53-6.86-7.24-13.68-12.33-19.53-6.2-7.32-13.49-13.63-21.04-19.5-12.71-10.12-25.14-20.57-38.05-30.43-19.99-14.88-41.23-27.99-63.07-39.95-24-13.42-48.02-27.05-73.9-36.55-18.51-6.98-36.73-14.84-55.66-20.66-15.35-4.7-31.14-7.71-46.81-11.11-17.45-3.91-34.56-9.23-51.94-13.41-17.04-4.27-34.38-7.23-51.34-11.76-37.94-10.17-75.45-23.06-114.8-26.54-9.06-1.05-18.1-2.09-27.12-3.36-10.65-1.5-21.13-4.07-31.84-5.13-23.89-2.06-47.83-3.78-71.8-4.48-12.07-.5-24.11-1.58-36.16-2.37-15.1-.63-30.22-.24-45.32-.35-5.47-.1-10.9.6-16.35.99-8.93.5-17.91.73-26.85.39-5.97-.53-11.81-1.88-17.66-3.14-7.02-1.41-14.13-3.34-20.18-7.3-2.04-1.33-4.18-2.68-5.36-4.87-2.4-5.06-3.14-11.05-2.21-16.56.63-3.63,2.5-6.92,4.29-10.1,8.76-13.99,20.87-25.51,33.64-35.82,11.94-9.58,24.62-18.41,38.45-25.05,15.07-7.3,30.58-13.73,46.37-19.29,22.71-7.13,46.05-12.14,69.42-16.59,20.42-3.77,40.74-8.19,61.36-10.72,42.28-3.43,84.84-2.13,127.14.65,25.39,2.03,50.65,5.41,75.65,10.3,22.27,4.41,44.72,7.86,67.03,12.07,24.32,4.16,47.67,12.3,71.38,18.91,15.02,4.15,30.26,7.41,45.32,11.41,10.96,3.02,21.94,5.94,33,8.56,22.16,5.22,44.38,10.61,65.83,18.29,17.97,6.57,34.65,16.25,52.73,22.55,8.45,3.04,17.45,4.57,26.44,3.95,7.47-.61,14.88-2.16,22.12-4.07,2.51-.85,5.24-1.66,7.13-3.6,1.2-2.13-1.68-4.06-3.14-5.24-5.27-3.69-11.43-5.81-17.29-8.36-11.36-4.55-22.84-8.79-34.19-13.34-16.2-6.48-32.18-13.52-48.5-19.68-13.08-4.77-26.27-9.23-39.18-14.46-10.68-4.08-21.03-8.97-31.71-13.04-17.26-6.83-35.84-9.06-54.04-12.05-25.95-4.14-51.73-9.21-77.8-12.51-18.11-2.31-35.73-7.1-53.56-10.83-17.18-3.27-34.5-5.76-51.71-8.82-16.91-2.91-33.78-6.04-50.62-9.33-14.01-2.69-27.99-5.66-42.19-7.06-18.27-1.73-36.67-1.3-55.01-1.48-23.77-.5-47.55.89-71.06,4.43-14.24,1.9-28.49,3.98-42.84,4.7-15.45.7-30.96.81-46.33,2.6-24.6,2.71-47.6,12.41-70.37,21.57-11.86,4.79-23.44,10.24-34.91,15.89-17.76,8.78-35.79,17.12-52.65,27.56-5.65,3.56-11.24,7.21-16.88,10.77-7.24,4.65-14.83,8.78-21.69,13.99-6.19,4.89-11.42,10.92-17.86,15.51-3.52,2.5-7.75,4.59-12.09,4.76-1.89-.4-2.13-3.38-.25-4.04.72-.3,1.53-.42,2.29-.63,4.75-1.1,8.55-4.24,12.19-7.31,5.96-5.33,11.51-11.18,18.33-15.45,13.44-8.39,26.74-17.02,40.27-25.25,10.91-6.38,22.3-11.85,33.59-17.51,19.04-9.46,38.18-18.72,58.05-26.32,12.07-4.85,24.23-9.52,36.8-12.95,26.97-8.08,55.45-5.78,83.16-8.43,20.8-1.88,41.37-5.78,62.21-7.32,15.43-1.28,30.98-.83,46.46-.89,15.62.15,31.28,0,46.87,1.23,19.81,1.96,39.24,6.46,58.79,10.07,12.83,2.51,25.73,4.74,38.62,6.98,18.1,3.29,36.38,5.61,54.38,9.48,8.84,1.75,17.54,4.16,26.39,5.91,12.49,2.76,25.22,4.22,37.88,6.01,18.64,2.81,37.17,6.3,55.79,9.32,15.88,2.67,31.92,4.67,47.52,8.77,19.96,5.66,38.4,15.52,57.93,22.42,13.84,5.02,27.77,9.8,41.41,15.35,16.07,6.6,32.05,13.43,48.29,19.62,8.66,3.34,17.36,6.56,25.88,10.27,3.49,1.48,7,2.98,10.22,5.02,1.79,1.16,2.33,1.5,3.99,2.93,1.06.92,2.24,2.32,2.79,3.64,3.52,9.27-11.98,11.78-18.15,13.17-10.64,2.4-21.7,3.44-32.46,1.16-23.94-5.6-44.83-19.57-68.06-27.25-22.24-7.46-45.14-12.75-67.92-18.24-19.57-4.99-39.01-10.43-58.7-14.91-20.22-4.95-39.88-11.92-60.07-16.96-17.43-4.62-35.27-7.33-53.01-10.4-31.07-5.33-61.94-12.22-93.35-15.33-28.31-2.87-56.76-4.21-85.21-4.38-19.58,0-39.18-.02-58.68,1.79-12.91,1.34-25.7,3.72-38.44,6.16-21.23,4.07-42.54,7.8-63.53,12.97-9.98,2.41-19.95,4.92-29.71,8.11-9.45,3.29-18.77,7-27.98,10.91-9.88,4.26-19.71,8.7-29.03,14.07-10.89,6.53-21.19,14.03-30.87,22.25-8.12,6.78-15.77,14.15-22.25,22.53-5.1,6.71-11.26,14.38-9.96,23.34.88,8.04,2.54,9.38,9.46,12.86,4.8,2.46,10.09,3.64,15.34,4.74,4.92,1.09,9.87,2.14,14.88,2.81,13.08.91,26.27-.04,39.33-1.09,10.52-.29,21.07-.03,31.6-.11,15.84-.37,31.58,1.39,47.37,2.29,9.29.56,18.61.77,27.91,1.18,18.84,1.14,37.73,2.24,56.5,4.25,12.06,1.61,23.94,4.42,36.05,5.77,15.74,2.03,31.61,3.25,47.21,6.25,26.45,4.86,52.16,12.97,78,20.25,18.86,5.38,38.18,8.8,57.24,13.4,12.91,2.96,25.61,6.74,38.42,10.07,20,5.44,40.59,8.44,60.48,14.32,11.07,3.11,21.81,7.21,32.51,11.41,14.3,5.56,28.69,10.86,42.84,16.81,17.38,7.58,34,16.76,50.54,26.02,31.01,16.74,61.09,35.37,88.25,57.91,13.72,11.78,29.02,21.89,41.19,35.37,6.55,7.12,11.18,15.68,15.54,24.25,4.89,9.93,9.29,20.07,13.16,30.43,4.77,13.83,9.72,27.7,11.79,42.25,2.6,16.39,2.07,33.04,1.25,49.55-1.17,22.53-4.83,44.84-8.17,67.12-3.07,22.28-8.07,44.23-15.55,65.46-5.19,14.88-10.19,29.91-17.61,43.86-9.68,18.13-23.85,33.29-37.97,48.03-17.24,18.15-36.65,34.05-56.65,49.04-11.15,8.09-22.57,15.81-33.65,23.99-14.45,10.53-28.29,21.9-43.11,31.91-21.64,14.41-42.66,29.68-63.73,44.9-35.25,24.5-72.69,45.57-109.77,67.11-31.26,16.48-62.45,33.13-94.23,48.58-26.19,12.04-52.4,24.02-78.16,36.96-7.03,3.54-14.21,6.77-21.11,10.54-.33.11-.25.22.23.34,1.96,1.14,3.88,2.78,5.04,4.77,2.53,4.45.63,10.14-2.83,13.51-.07.06-1.77,1.42-2.55,1.75-2.37.92-4.89,1.35-7.43,1.18Z" fill="#000" stroke-width="0"/>
      <path d="M989.03,551.53c-3.08-.23-3.42-4.62-.18-4.69,1.16-.03,2.53.43,2.67,1.76.04,1.44-.83,3.15-2.49,2.93Z" fill="#000" stroke-width="0"/>
      <path d="M1105.79,559.11c-1.83-2.48,2-5.38,3.84-2.91,1.08.45,1.52,1.89.92,2.88-.95,1.57-3.65,1.26-4.76.04Z" fill="#000" stroke-width="0"/>
      <path d="M1051.96,596.39c-.56-.53-1.19-.89-1.84-1.26-1.28-1.07-.59-3.24,1.03-3.48,1.52-.33,2.49,1.05,3.69,1.66,2.85,1.15,3.57-.34,4.71-2.6,1.09-1.26,3.21-.67,3.52.95.13,1.57-.95,3.04-1.92,4.19-2.3,2.61-6.48,2.36-9.19.54Z" fill="#000" stroke-width="0"/>
      <path d="M949.68,554.56c-1.64-.05-3.33-.56-4.41-1.84-2.35-2.75-.57-7.91,3.06-8.44,2.22-.39,5.22,1.86,4.1,4.23-.78,1.43-2.68,1.34-4.05,1.01-.11.42.19.71.58.77.72.26,1.42-.02,2.14,0,1.76.15,2.47,2.57,1.06,3.64-.67.54-1.66.63-2.49.62Z" fill="#000" stroke-width="0"/>
      <path d="M1133.88,568.63c-.99-.08-2.12-.07-2.89-.78-1.19-1.13-.46-3.3,1.18-3.46,1.68.14,3.42.3,5.1-.14,1.17-.32,3.17-.88,1.25-2.02-1.04-.77-2.29-1.29-3.56-1.54-.76-.04-1.61-.12-2.18-.69-1.19-1.14-.34-3.13,1.24-3.27,2.36-.29,4.72.87,6.67,2.11,3,1.72,3.76,6.06.59,8.02-2.15,1.47-4.85,1.77-7.4,1.76Z" fill="#000" stroke-width="0"/>
    </g>
  </g>
</svg>